<?xml version="1.0" encoding="UTF-8"?>
<svg width="24px" height="24px" viewBox="0 0 24 24" version="1.1" xmlns="http://www.w3.org/2000/svg">
    <g stroke="none" stroke-width="1" fill="none" fill-rule="evenodd">
        <g fill="#4EB8F5" fill-rule="nonzero">
            <path d="M18,8 L17,8 L12,3 L2,3 L2,21 L12,21 L17,16 L18,16 C20.21,16 22,14.21 22,12 C22,9.79 20.21,8 18,8 Z M12,19 L4,19 L4,5 L11.17,5 L16.17,10 L18,10 C19.1,10 20,10.9 20,12 C20,13.1 19.1,14 18,14 L16.17,14 L11.17,19 L12,19 Z M6,13 L8,13 L8,9 L10,9 L10,13 L12,13 L9,16 L6,13 Z"></path>
        </g>
    </g>
</svg>
