<?xml version="1.0" encoding="UTF-8"?>
<svg width="24px" height="24px" viewBox="0 0 24 24" version="1.1" xmlns="http://www.w3.org/2000/svg">
    <g stroke="none" stroke-width="1" fill="none" fill-rule="evenodd">
        <g fill="#4EB8F5" fill-rule="nonzero">
            <path d="M12,2 C6.48,2 2,6.48 2,12 C2,17.52 6.48,22 12,22 C17.52,22 22,17.52 22,12 C22,6.48 17.52,2 12,2 Z M12,20 C7.59,20 4,16.41 4,12 C4,7.59 7.59,4 12,4 C16.41,4 20,7.59 20,12 C20,16.41 16.41,20 12,20 Z M15,9 C15,10.66 13.66,12 12,12 C10.34,12 9,10.66 9,9 C9,7.34 10.34,6 12,6 C13.66,6 15,7.34 15,9 Z M12,8 C11.45,8 11,8.45 11,9 C11,9.55 11.45,10 12,10 C12.55,10 13,9.55 13,9 C13,8.45 12.55,8 12,8 Z M18,14.58 C17.36,14.13 16.44,14 15.53,14.19 C14.63,14.37 13.86,14.77 13.17,15.17 C12.69,15.47 12.23,15.74 11.79,15.91 C11.34,16.09 10.89,16.18 10.4,16.08 C8.79,15.71 8.2,13.24 8.16,13.03 C8.11,12.83 7.93,12.7 7.72,12.73 C7.52,12.76 7.36,12.95 7.39,13.15 C7.42,13.35 8.13,16.54 10.5,17.07 C10.74,17.12 10.98,17.14 11.21,17.14 C11.98,17.14 12.71,16.89 13.44,16.5 C14.15,16.12 14.86,15.65 15.61,15.38 C16.36,15.12 17.15,15.14 17.69,15.54 C17.76,15.59 17.83,15.63 17.91,15.63 C18.04,15.63 18.16,15.56 18.22,15.45 C18.32,15.28 18.26,15.07 18.1,14.97 C18.06,14.94 18.03,14.61 18,14.58 Z"></path>
        </g>
    </g>
</svg>
