<?xml version="1.0" encoding="UTF-8"?>
<svg width="24px" height="24px" viewBox="0 0 24 24" version="1.1" xmlns="http://www.w3.org/2000/svg">
    <g stroke="none" stroke-width="1" fill="none" fill-rule="evenodd">
        <g fill="#4EB8F5" fill-rule="nonzero">
            <path d="M18,18.5 C18.83,18.5 19.5,17.83 19.5,17 C19.5,16.17 18.83,15.5 18,15.5 C17.17,15.5 16.5,16.17 16.5,17 C16.5,17.83 17.17,18.5 18,18.5 Z M19.5,9.5 L17,9.5 L17,12 L21.46,12 C21.23,10.61 20.52,9.5 19.5,9.5 Z M6,18.5 C6.83,18.5 7.5,17.83 7.5,17 C7.5,16.17 6.83,15.5 6,15.5 C5.17,15.5 4.5,16.17 4.5,17 C4.5,17.83 5.17,18.5 6,18.5 Z M20,8 L22,8 L22,14 L19,14 C19,15.66 17.66,17 16,17 C14.34,17 13,15.66 13,14 L11,14 C11,15.66 9.66,17 8,17 C6.34,17 5,15.66 5,14 L2,14 L2,8 L4,8 L4,5 L13,5 L13,8 L15,8 L15,11 L18,11 L18,8 L20,8 Z M7.5,11 L4.5,11 L4.5,14 L7.5,14 L7.5,11 Z M13,11 L10,11 L10,14 L13,14 L13,11 Z M13,8 L10,8 L10,5 L13,5 L13,8 Z M4.5,8 L7.5,8 L7.5,5 L4.5,5 L4.5,8 Z"></path>
        </g>
    </g>
</svg>
