<?xml version="1.0" encoding="UTF-8"?>
<svg width="24px" height="24px" viewBox="0 0 24 24" version="1.1" xmlns="http://www.w3.org/2000/svg">
    <g stroke="none" stroke-width="1" fill="none" fill-rule="evenodd">
        <g fill="#4EB8F5" fill-rule="nonzero">
            <path d="M12,3 C7.03,3 3,7.03 3,12 L0,12 L4,16 L8,12 L5,12 C5,8.13 8.13,5 12,5 C15.87,5 19,8.13 19,12 C19,15.87 15.87,19 12,19 C10.46,19 9.03,18.5 7.86,17.64 L6.51,19.14 C8.04,20.3 9.94,21 12,21 C16.97,21 21,16.97 21,12 C21,7.03 16.97,3 12,3 Z M14,12 C14,13.1 13.1,14 12,14 C10.9,14 10,13.1 10,12 C10,10.9 10.9,10 12,10 C13.1,10 14,10.9 14,12 Z"></path>
        </g>
    </g>
</svg>
