<?xml version="1.0" encoding="UTF-8"?>
<svg width="24px" height="24px" viewBox="0 0 24 24" version="1.1" xmlns="http://www.w3.org/2000/svg">
    <g stroke="none" stroke-width="1" fill="none" fill-rule="evenodd">
        <g fill="#4EB8F5" fill-rule="nonzero">
            <path d="M18,4 L18,6 L21,6 L21,9 L15,9 L15,6 L18,6 L18,4 L10,4 L10,6 L13,6 L13,9 L7,9 L7,6 L10,6 L10,4 L6,4 C4.9,4 4,4.9 4,6 L4,18 C4,19.1 4.9,20 6,20 L18,20 C19.1,20 20,19.1 20,18 L20,6 C20,4.9 19.1,4 18,4 Z M11,14.5 L11,16.5 L8,16.5 L8,14.5 L11,14.5 Z M16,14.5 L16,16.5 L13,16.5 L13,14.5 L16,14.5 Z M8,12.5 L8,10.5 L11,10.5 L11,12.5 L8,12.5 Z M13,12.5 L13,10.5 L16,10.5 L16,12.5 L13,12.5 Z"></path>
        </g>
    </g>
</svg>
