<?xml version="1.0" encoding="UTF-8"?>
<svg width="24px" height="24px" viewBox="0 0 24 24" version="1.1" xmlns="http://www.w3.org/2000/svg">
    <g stroke="none" stroke-width="1" fill="none" fill-rule="evenodd">
        <g fill="#4EB8F5">
            <path d="M20,3 C21.1,3 22,3.9 22,5 L22,15 C22,16.1 21.1,17 20,17 L4,17 C2.9,17 2,16.1 2,15 L2,5 C2,3.9 2.9,3 4,3 L20,3 Z M20,15 L20,5 L4,5 L4,15 L20,15 Z" fill-rule="nonzero"></path>
            <rect x="6" y="7" width="12" height="2"></rect>
            <rect x="6" y="11" width="12" height="2"></rect>
            <path d="M6,21 L18,21 L18,19 L6,19 L6,21 Z" fill-rule="nonzero"></path>
        </g>
    </g>
</svg>
