<?xml version="1.0" encoding="UTF-8"?>
<svg width="24px" height="24px" viewBox="0 0 24 24" version="1.1" xmlns="http://www.w3.org/2000/svg">
    <g stroke="none" stroke-width="1" fill="none" fill-rule="evenodd">
        <g fill="#4EB8F5" fill-rule="nonzero">
            <path d="M12,3 L2,9.5 L2,21 L22,21 L22,9.5 L12,3 Z M12,5.14 L18,9.5 L6,9.5 L12,5.14 Z M19,19 L5,19 L5,11.5 L19,11.5 L19,19 Z M12,12.5 L12,18.5 L16,18.5 L16,12.5 L12,12.5 Z M8,12.5 L8,14.5 L11,14.5 L11,12.5 L8,12.5 Z M8,15.5 L8,18.5 L11,18.5 L11,15.5 L8,15.5 Z"></path>
        </g>
    </g>
</svg>
